<svg role="img" xmlns="http://www.w3.org/2000/svg" viewBox="0 0 800 800">
  <title>Overcast icon</title>
  <path fill-rule="evenodd" clip-rule="evenodd" fill="#FC7E0F" d="M400,800C178.33,800,0,621.67,0,400S178.33,0,400,0 s400,178.33,400,400S621.67,800,400,800z M400,641.67l30-30l-30-115l-30,115L400,641.67z M361.67,640l-15,56.67l35-35L361.67,640z M438.33,640l-20,20l35,35L438.33,640z M466.67,743.33L400,676.67l-66.67,66.66C355,746.67,376.67,750,400,750 C423.33,750,445,748.33,466.67,743.33z M400,50C206.67,50,50,206.67,50,400c0,153.33,98.33,283.33,235,330l75-278.33 C343.33,440,333.33,420,333.33,398.33c0-36.66,30-66.66,66.67-66.66s66.67,30,66.67,66.66c0,21.67-10,40-26.67,53.34L515,730 c136.67-46.67,235-176.67,235-330C750,206.67,593.33,50,400,50z M628.33,573.33c-8.33,10-23.33,13.34-35,5 C581.67,570,580,555,588.33,545c0,0,45-60,45-145s-45-145-45-145c-8.33-10-6.66-25,5-33.33c11.67-8.34,26.67-5,35,5 c3.34,3.33,55,71.66,55,173.33S631.67,570,628.33,573.33z M506.67,508.33c-10-10-8.34-28.33,1.66-38.33c0,0,25-26.67,25-70 s-25-68.33-25-70c-10-10-10-26.67-1.66-38.33c10-11.67,25-11.67,35-1.67c1.66,1.67,41.66,43.33,41.66,110s-40,108.33-41.66,110 C531.67,520,516.67,518.33,506.67,508.33z M293.33,508.33c-10,10-25,11.67-35,1.67c-1.66-3.33-41.66-43.33-41.66-110 s40-106.67,41.66-110c10-10,26.67-10,35,1.67c10,10,8.34,28.33-1.66,38.33c0,1.67-25,26.67-25,70s25,70,25,70 C301.67,480,303.33,496.67,293.33,508.33z M206.67,578.33c-11.67,8.34-26.67,5-35-5c-3.34-3.33-55-71.66-55-173.33 s51.66-170,55-173.33c8.33-10,23.33-13.34,35-5C218.33,230,220,245,211.67,255c0,0-45,60-45,145s45,145,45,145 C220,555,216.67,570,206.67,578.33z"/>
</svg>
